<?xml version="1.0" standalone="no"?>
<!DOCTYPE svg PUBLIC "-//W3C//DTD SVG 20010904//EN"
 "http://www.w3.org/TR/2001/REC-SVG-20010904/DTD/svg10.dtd">
<svg version="1.0" xmlns="http://www.w3.org/2000/svg"
 width="190.000000pt" height="60.000000pt" viewBox="0 0 190.000000 60.000000"
 preserveAspectRatio="xMidYMid meet">

<g transform="translate(0.000000,60.000000) scale(0.100000,-0.100000)"
fill="#000000" stroke="none">
<path d="M420 359 c38 -78 68 -124 77 -115 2 2 -14 41 -37 86 -23 45 -39 84
-37 86 13 14 38 -16 72 -86 49 -100 68 -90 22 11 -35 77 -60 99 -112 99 l-24
0 39 -81z"/>
<path d="M667 429 c-9 -5 -39 -57 -66 -115 -51 -107 -69 -126 -98 -103 -12 11
-11 4 6 -29 19 -37 26 -42 55 -42 18 0 38 6 43 13 11 13 133 273 133 282 0 9
-54 5 -73 -6z"/>
<path d="M930 255 c0 -87 2 -95 19 -95 15 0 21 8 23 33 l4 32 19 -32 c13 -21
28 -33 42 -33 l22 0 -20 35 -21 35 22 30 c21 29 21 30 1 30 -11 0 -28 -11 -39
-25 -11 -14 -23 -25 -26 -25 -3 0 -6 25 -6 55 0 48 -2 55 -20 55 -19 0 -20 -7
-20 -95z"/>
<path d="M1273 334 c-8 -21 13 -42 28 -27 13 13 5 43 -11 43 -6 0 -13 -7 -17
-16z"/>
<path d="M1420 315 c0 -33 -1 -34 -29 -29 -22 5 -32 1 -45 -17 -18 -27 -21
-62 -6 -89 8 -16 21 -19 60 -19 l50 2 0 93 c0 77 -3 94 -15 94 -10 0 -15 -11
-15 -35z m-2 -86 c3 -27 -20 -55 -38 -44 -11 7 -14 58 -3 69 14 14 38 0 41
-25z"/>
<path d="M710 270 c-24 -24 -26 -57 -4 -88 13 -19 24 -22 57 -20 24 2 42 9 45
17 4 11 -2 13 -25 8 -28 -6 -53 6 -53 25 0 4 18 8 40 8 36 0 40 3 40 25 0 44
-64 61 -100 25z m70 -21 c0 -5 -12 -9 -26 -9 -22 0 -24 2 -14 14 12 15 40 11
40 -5z"/>
<path d="M840 225 c0 -51 3 -65 15 -65 11 0 15 11 15 39 0 37 13 59 35 60 6 0
11 7 13 15 4 19 -19 21 -36 4 -9 -9 -12 -9 -12 0 0 7 -7 12 -15 12 -12 0 -15
-14 -15 -65z"/>
<path d="M1087 279 c-26 -15 -11 -29 23 -22 42 8 40 -20 -2 -32 -26 -8 -33
-15 -33 -35 0 -23 4 -25 53 -27 l52 -1 0 48 c0 70 -40 100 -93 69z m53 -79 c0
-12 -28 -25 -36 -17 -9 9 6 27 22 27 8 0 14 -5 14 -10z"/>
<path d="M1270 226 c0 -56 3 -66 18 -66 14 0 17 9 16 62 -1 49 -5 64 -18 66
-13 3 -16 -7 -16 -62z"/>
<path d="M1207 194 c-14 -15 -6 -34 14 -34 14 0 19 5 17 17 -3 18 -20 27 -31
17z"/>
<path d="M1291 94 c0 -11 3 -14 6 -6 3 7 2 16 -1 19 -3 4 -6 -2 -5 -13z"/>
<path d="M1400 90 c0 -5 9 -8 20 -7 21 1 18 10 -5 13 -8 1 -15 -2 -15 -6z"/>
</g>
</svg>
